# xmcd
#
# Track frame offsets:
#	150
#	31673
#	51616
#	65881
#	110878
#	126050
#	152064
#	197496
#	222425
#	277363
#	299874
#	317270
#	342485
#
# Disc length: 4709 seconds
#
# Revision: 0
# Processed by: cddbd v1.5.2PL0 Copyright (c) Steve Scherf et al.
# Submitted via: dBpowerAMP V4.0
#
DISCID=de12630d
DTITLE=Indigenous - Awake
DYEAR=1900
DGENRE=Blues
TTITLE0=C'mon Suzie
TTITLE1=You Turn My World Around
TTITLE2=What You Do To Me
TTITLE3=Hold On
TTITLE4=I'm Still Here
TTITLE5=Be Right There
TTITLE6=Movin' On
TTITLE7=Want You To Say
TTITLE8=Shame, Shame, Shame
TTITLE9=Take Some Time
TTITLE10=Where Are You
TTITLE11=I Wonder
TTITLE12=Instrumental
EXTD=don't know exactly what year this album came out, it says the release date is 22 July 2003. i believe this is Indigenous's 1st album
EXTT0=
EXTT1=
EXTT2=
EXTT3=
EXTT4=
EXTT5=
EXTT6=
EXTT7=
EXTT8=
EXTT9=
EXTT10=
EXTT11=
EXTT12=
PLAYORDER=
